# xmcd
#
# Track frame offsets: 
#        150
#        46107
#        82625
#        102115
#        134117
#        157662
#        174360
#        189775
#        205805
#        227282
#        255290
#        307207
#        327450
#
# Disc length: 4662 seconds
#
# Revision: 5
# Processed by: cddbd v1.5.2PL0 Copyright (c) Steve Scherf et al.
# Submitted via: ExactAudioCopy v0.99pb3
#
DISCID=9412340d
DTITLE=Jimi Hendrix - 51st Anniversary (The Story Of Life...) 6
DYEAR=1993
DGENRE=Rock
TTITLE0=Two Guitars Jam
TTITLE1=S. Francisco Bay Blues
TTITLE2=Gypsy Eyes
TTITLE3=Cherokee Mist
TTITLE4=The Street Things
TTITLE5=In From the Storm
TTITLE6=Freedom
TTITLE7=Somewhere Over the Rainbow 2
TTITLE8=Belly Button Window
TTITLE9=Captain Coconut 2 and Cherokee Mist
TTITLE10=Rider Blues
TTITLE11=Electric Ladyland Theme
TTITLE12=Jazzy Jamming
EXTD=ID3G: 0\nJmh 005,6/8\nMade in Italy by Future Disk (this appears
EXTD=to be an Italian bootleg)
EXTT0=
EXTT1=
EXTT2=
EXTT3=
EXTT4=
EXTT5=
EXTT6=
EXTT7=
EXTT8=
EXTT9=
EXTT10=
EXTT11=
EXTT12=
PLAYORDER=
